# xmcd
#
# Track frame offsets: 
#        150
#        17710
#        34998
#        53887
#        66692
#        83617
#        97098
#        116178
#        133783
#        153459
#        166375
#        184984
#        203504
#        216628
#        230024
#        244345
#        264906
#        286261
#        305520
#
# Disc length: 4324 seconds
#
# Revision: 0
# Processed by: cddbd v1.4PL0 Copyright (c) Steve Scherf et al.
# Submitted via: ExactAudioCopy v0.95a3
#
DISCID=2310e213
DTITLE=周蕙 - 未知标题
DYEAR=1900
DGENRE=
TTITLE0=相思河畔
TTITLE1=我要你的爱
TTITLE2=秋夜
TTITLE3=心恋
TTITLE4=叉烧包
TTITLE5=如果没有你
TTITLE6=不了情
TTITLE7=说不出的快乐
TTITLE8=今宵多珍重
TTITLE9=偷偷摸摸
TTITLE10=魂萦旧梦
TTITLE11=梦中人
TTITLE12=打喷嚏
TTITLE13=你真美丽
TTITLE14=等着你回来
TTITLE15=给我一个吻
TTITLE16=情人的眼泪
TTITLE17=好想好好爱你
TTITLE18=ANGEL FACE
EXTD=
EXTT0=
EXTT1=
EXTT2=
EXTT3=
EXTT4=
EXTT5=
EXTT6=
EXTT7=
EXTT8=
EXTT9=
EXTT10=
EXTT11=
EXTT12=
EXTT13=
EXTT14=
EXTT15=
EXTT16=
EXTT17=
EXTT18=
PLAYORDER=
